<svg width="18" height="18" viewBox="0 0 18 18" fill="none" xmlns="http://www.w3.org/2000/svg">
<path d="M17.58 16.37L14.59 8.01C14.38 7.46 13.91 7.12 13.37 7.12C12.83 7.12 12.37 7.46 12.14 8.03L9.16 16.37C9.12323 16.4633 9.10555 16.563 9.108 16.6633C9.11045 16.7635 9.13298 16.8622 9.17425 16.9536C9.21552 17.045 9.2747 17.1272 9.34829 17.1953C9.42188 17.2635 9.50838 17.3161 9.60268 17.3502C9.69698 17.3843 9.79716 17.3992 9.89729 17.3939C9.99743 17.3886 10.0955 17.3633 10.1857 17.3195C10.2759 17.2756 10.3563 17.2142 10.4224 17.1387C10.4884 17.0632 10.5386 16.9752 10.57 16.88L11.19 15.15H15.54L16.16 16.88C16.27 17.19 16.56 17.38 16.87 17.38C16.95 17.38 17.04 17.37 17.12 17.34C17.3069 17.2723 17.4593 17.1332 17.5437 16.9531C17.6281 16.7731 17.6375 16.567 17.57 16.38L17.58 16.37ZM11.74 13.64L13.38 9.05L15.02 13.64H11.74ZM9.18999 4.85C6.92999 8.42 4.89 10.58 2.41 12.02C2.3253 12.0693 2.23172 12.1013 2.13462 12.1144C2.03752 12.1275 1.93879 12.1214 1.84407 12.0963C1.74935 12.0712 1.6605 12.0277 1.58259 11.9683C1.50467 11.9089 1.43923 11.8347 1.39 11.75C1.33993 11.6655 1.30719 11.5719 1.29368 11.4746C1.28016 11.3774 1.28614 11.2784 1.31127 11.1834C1.3364 11.0885 1.38018 10.9995 1.44005 10.9217C1.49992 10.8438 1.57469 10.7787 1.66 10.73C3.75999 9.51 5.48 7.76 7.41 4.86H1.12C0.709995 4.86 0.369995 4.52 0.369995 4.11C0.369995 3.7 0.709995 3.36 1.12 3.36H4.87V1.38C4.87 0.97 5.21 0.63 5.62 0.63C6.03 0.63 6.37 0.97 6.37 1.38V3.36H10.12C10.53 3.36 10.87 3.7 10.87 4.11C10.87 4.52 10.53 4.86 10.12 4.86H9.18L9.18999 4.85ZM9.22999 12.12C9.09999 12.12 8.97 12.09 8.85 12.02C8.2 11.64 7.56999 11.22 6.97999 10.78C6.82086 10.6607 6.71566 10.483 6.68753 10.2861C6.6594 10.0892 6.71065 9.88913 6.83 9.73C6.94934 9.57087 7.12702 9.46567 7.32393 9.43754C7.52084 9.40941 7.72087 9.46065 7.88 9.58C8.42 9.99 9.00999 10.37 9.60999 10.72C9.75205 10.8036 9.86268 10.9317 9.92487 11.0843C9.98705 11.237 9.99735 11.4059 9.95416 11.565C9.91098 11.7241 9.81671 11.8646 9.68587 11.9649C9.55502 12.0651 9.39485 12.1197 9.22999 12.12Z" fill="white"/>
</svg>
