<svg width="22" height="24" viewBox="0 0 22 24" fill="none" xmlns="http://www.w3.org/2000/svg">
<path d="M9.53008 0C9.98644 6.43077e-05 10.3294 0.11209 10.5576 0.338174C10.8047 0.545387 10.9285 0.866151 10.9286 1.29921V9.10137C10.9286 9.28982 10.9463 9.47007 10.9843 9.63968C11.0224 9.80915 11.0701 9.988 11.1271 10.1763L11.2125 10.3747V4.38073C11.2125 4.13597 11.2426 3.9291 11.2996 3.7596C11.3756 3.58999 11.4799 3.44823 11.613 3.33515L15.2931 0.25363C15.3881 0.17835 15.5121 0.122235 15.664 0.0845435C15.8352 0.0280071 16.0172 0 16.2074 0H20.6868C21.1622 2.00121e-05 21.4945 0.103431 21.6848 0.310568C21.8939 0.517781 21.9999 0.847217 22 1.29921V8.76319C22 9.21529 21.9806 9.61115 21.9425 9.95025C21.9235 10.2705 21.8758 10.5822 21.7997 10.8837C21.7236 11.1662 21.6193 11.4677 21.4862 11.7878C21.3721 12.0893 21.229 12.4569 21.0578 12.8903L18.2608 19.816C18.2037 19.9854 18.1277 20.1362 18.0326 20.268C17.9375 20.3999 17.8421 20.5032 17.747 20.5786L14.067 23.6032C13.915 23.7349 13.7342 23.8296 13.5253 23.8861C13.3352 23.9615 13.1158 23.9999 12.8687 24H5.44949C5.01209 24 4.66037 23.9142 4.39408 23.7446C4.12787 23.5939 3.90867 23.3118 3.73749 22.8975L0.940469 15.9718C0.769348 15.5386 0.61728 15.1707 0.484167 14.8693C0.370029 14.5489 0.274635 14.2462 0.198543 13.9635C0.12258 13.6623 0.0658825 13.3517 0.0278657 13.0318C0.00885299 12.6927 1.02592e-05 12.2967 0 11.8447V4.38073C2.66745e-05 4.13599 0.0283448 3.92909 0.0853388 3.7596C0.161431 3.58999 0.265667 3.44823 0.398828 3.33515L4.07885 0.25363C4.1738 0.178374 4.29798 0.122235 4.44981 0.0845435C4.62102 0.0280071 4.80296 0 4.99319 0H9.53008ZM4.99319 0.282962C4.63176 0.282962 4.365 0.366985 4.19379 0.536592C4.04169 0.687275 3.96573 0.941453 3.96564 1.29921V8.76319C3.96565 9.21489 3.97453 9.60082 3.99351 9.92092C4.03154 10.2223 4.08989 10.5149 4.16593 10.7974C4.24202 11.0801 4.33567 11.3829 4.44981 11.7032C4.47015 11.757 4.49384 11.8116 4.51599 11.8689C3.3997 12.9861 2.70994 14.5224 2.70994 16.2185C2.70994 19.6337 5.50455 22.4023 8.95187 22.4023C10.652 22.4023 12.1924 21.7278 13.3181 20.6355H16.5488C16.9102 20.6355 17.2052 20.569 17.4335 20.4371C17.6808 20.3052 17.8716 20.0601 18.0047 19.7021L20.8 12.7764C20.9711 12.3621 21.1144 12.0046 21.2285 11.7032C21.3426 11.3829 21.438 11.0801 21.5141 10.7974C21.5901 10.5149 21.6379 10.2222 21.6569 9.92092C21.6949 9.60081 21.7144 9.21491 21.7144 8.76319V1.29921C21.7143 0.941453 21.6277 0.687275 21.4566 0.536592C21.3044 0.367152 21.048 0.282983 20.6868 0.282962H16.2074C15.846 0.282962 15.5792 0.367035 15.408 0.536592C15.2559 0.687275 15.1799 0.941453 15.1799 1.29921V9.07376C15.1799 9.26218 15.1604 9.45126 15.1224 9.63968C15.0843 9.82795 15.0277 10.0261 14.9517 10.2332L14.1088 12.735C13.3411 11.6218 12.2163 10.7702 10.8972 10.3419L10.8711 10.2608C10.7951 10.0536 10.7385 9.8557 10.7004 9.66729C10.6624 9.47883 10.643 9.28982 10.643 9.10137V1.29921C10.6429 0.941524 10.5474 0.687286 10.3573 0.536592C10.1672 0.367042 9.89133 0.283023 9.53008 0.282962H4.99319ZM7.2747 10.4023C7.35075 10.8355 7.4746 11.2595 7.64566 11.6739L9.53008 16.1978C9.75824 16.744 10.0147 17.1961 10.2999 17.554C10.5852 17.9121 11.0233 18.0906 11.613 18.0906H14.1244C14.4443 18.0905 14.718 18.0356 14.9482 17.9301C14.6462 18.9706 14.0778 19.8983 13.3181 20.6355H9.12951C8.76838 20.6354 8.46405 20.5689 8.21691 20.4371C7.98881 20.3051 7.80836 20.06 7.67527 19.7021L6.27676 16.2393L4.87825 12.7764C4.73768 12.436 4.61808 12.133 4.51599 11.8689C5.26558 11.1187 6.20735 10.5575 7.26251 10.2643C7.26767 10.3105 7.26896 10.3568 7.2747 10.4023ZM18.5464 8.93228C18.5464 9.45992 18.5093 9.95003 18.4332 10.4023C18.3761 10.8356 18.2612 11.2594 18.0901 11.6739L16.2074 16.1978C15.9792 16.7443 15.7212 17.196 15.4359 17.554C15.3054 17.7176 15.1423 17.8413 14.9482 17.9301C14.9845 17.8051 15.0173 17.6787 15.0458 17.5505C15.1295 17.4874 15.2036 17.4144 15.2652 17.328C15.5125 16.9888 15.7316 16.5739 15.9218 16.084L17.8045 11.5618C17.9566 11.1848 18.0715 10.7788 18.1476 10.3454C18.2236 9.8932 18.2608 9.42211 18.2608 8.93228V2.82617H18.5464V8.93228ZM8.95187 10.0348C9.63123 10.0348 10.285 10.1431 10.8972 10.3419L12.2122 14.2188C12.2692 14.4071 12.3364 14.5386 12.4124 14.6139C12.4885 14.6703 12.602 14.6985 12.7538 14.6985H13.0673C13.2195 14.6985 13.3343 14.6705 13.4104 14.6139C13.4864 14.5385 13.5537 14.4071 13.6107 14.2188L14.1088 12.735C14.793 13.7271 15.1938 14.9263 15.1938 16.2185C15.1938 16.676 15.1409 17.1213 15.0458 17.5505C14.8192 17.7213 14.5131 17.8092 14.1244 17.8093H11.613C11.0804 17.8093 10.69 17.6483 10.4427 17.328C10.2144 16.9888 10.0059 16.5739 9.81571 16.084L7.93129 11.5618C7.7791 11.1848 7.58993 10.3454 7.58993 10.3454C7.58993 10.3454 7.57507 10.2497 7.56555 10.1884C8.03028 10.0841 8.47537 10.0348 8.95187 10.0348ZM7.47498 8.93228C7.47498 9.36576 7.50336 9.75928 7.56555 10.1884C7.46422 10.211 7.36252 10.2365 7.26251 10.2643C7.21634 9.85065 7.18936 9.40688 7.18936 8.93228V2.82617H7.47498V8.93228Z" fill="black"/>
<path d="M7.2747 10.4023C7.35075 10.8355 7.4746 11.2595 7.64566 11.6739L9.53008 16.1978C9.75824 16.744 10.0147 17.1961 10.2999 17.554C10.5852 17.9121 11.0233 18.0906 11.613 18.0906H14.1244C14.4443 18.0905 14.718 18.0356 14.9482 17.9301C14.9845 17.8051 15.0173 17.6787 15.0458 17.5505C14.8192 17.7213 14.5131 17.8092 14.1244 17.8093H11.613C11.0804 17.8093 10.69 17.6483 10.4427 17.328C10.2144 16.9888 10.0059 16.5739 9.81571 16.084L7.93129 11.5618C7.7791 11.1848 7.58993 10.3454 7.58993 10.3454L7.56555 10.1884C7.46422 10.211 7.36252 10.2365 7.26251 10.2643C7.26767 10.3105 7.26896 10.3568 7.2747 10.4023Z" fill="#FA5D29"/>
</svg>
