<svg width="1280" height="166" viewBox="0 0 1280 166" fill="none" xmlns="http://www.w3.org/2000/svg">
<path d="M-12.3984 163V2.94141H47.6504C59.9681 2.94141 70.2806 5.23307 78.5879 9.81641C86.9668 14.3997 93.3047 20.7018 97.6016 28.7227C101.898 36.7435 104.047 45.8385 104.047 56.0078C104.047 66.2487 101.863 75.3796 97.4941 83.4004C93.1973 91.3496 86.8236 97.6159 78.373 102.199C69.9225 106.711 59.5384 108.967 47.2207 108.967H7.47461V85.1191H43.2461C50.4792 85.1191 56.3874 83.9017 60.9707 81.4668C65.6257 78.9603 69.0273 75.5228 71.1758 71.1543C73.3958 66.7142 74.5059 61.6654 74.5059 56.0078C74.5059 50.2786 73.3958 45.2656 71.1758 40.9688C69.0273 36.6003 65.6257 33.2344 60.9707 30.8711C56.3874 28.4362 50.4434 27.2188 43.1387 27.2188H16.6055V163H-12.3984ZM154.02 163V2.94141H214.068C226.386 2.94141 236.699 5.08984 245.006 9.38672C253.385 13.6836 259.723 19.6992 264.02 27.4336C268.316 35.0964 270.465 44.0124 270.465 54.1816C270.465 64.4225 268.281 73.3027 263.912 80.8223C259.615 88.3418 253.242 94.1426 244.791 98.2246C236.34 102.307 225.956 104.348 213.639 104.348H170.992V80.3926H209.664C216.897 80.3926 222.805 79.39 227.389 77.3848C232.044 75.3796 235.445 72.4434 237.594 68.5762C239.814 64.6374 240.924 59.8392 240.924 54.1816C240.924 48.5241 239.814 43.6901 237.594 39.6797C235.374 35.5977 231.972 32.5182 227.389 30.4414C222.805 28.293 216.861 27.2188 209.557 27.2188H183.023V163H154.02ZM243.932 163L205.152 90.3828H236.734L276.373 163H243.932ZM391.551 165.148C377.586 165.148 365.018 161.89 353.846 155.373C342.745 148.856 333.973 139.475 327.527 127.229C321.154 114.982 317.967 100.266 317.967 83.0781C317.967 65.819 321.154 51.0664 327.527 38.8203C333.973 26.5026 342.745 17.0853 353.846 10.5684C365.018 4.05143 377.586 0.792969 391.551 0.792969C405.587 0.792969 418.12 4.05143 429.148 10.5684C440.177 17.0853 448.914 26.5026 455.359 38.8203C461.805 51.0664 465.027 65.819 465.027 83.0781C465.027 100.266 461.805 114.982 455.359 127.229C448.914 139.475 440.177 148.856 429.148 155.373C418.12 161.89 405.587 165.148 391.551 165.148ZM391.551 139.152C400.216 139.152 407.879 137.004 414.539 132.707C421.199 128.41 426.427 122.108 430.223 113.801C434.018 105.422 435.916 95.181 435.916 83.0781C435.916 70.9036 434.018 60.627 430.223 52.248C426.427 43.8691 421.199 37.5312 414.539 33.2344C407.879 28.9375 400.216 26.7891 391.551 26.7891C382.885 26.7891 375.187 28.9375 368.455 33.2344C361.795 37.5312 356.567 43.8691 352.771 52.248C348.976 60.627 347.078 70.9036 347.078 83.0781C347.078 95.181 348.976 105.422 352.771 113.801C356.567 122.108 361.795 128.41 368.455 132.707C375.187 137.004 382.885 139.152 391.551 139.152ZM558.506 165.148C549.196 165.148 540.674 163.501 532.939 160.207C525.277 156.841 519.189 151.828 514.678 145.168C510.166 138.508 507.91 130.272 507.91 120.461V117.99H536.699V120.461C536.699 124.758 537.594 128.482 539.385 131.633C541.247 134.784 543.825 137.183 547.119 138.83C550.413 140.477 554.209 141.301 558.506 141.301C563.161 141.301 567.1 140.334 570.322 138.4C573.617 136.467 576.087 133.566 577.734 129.699C579.453 125.832 580.312 121.105 580.312 115.52V2.94141H608.994V115.52C608.994 125.832 606.917 134.712 602.764 142.16C598.682 149.536 592.845 155.23 585.254 159.24C577.734 163.179 568.818 165.148 558.506 165.148ZM665.305 163V2.94141H769.504V27.2188H694.309V70.1875H763.918V94.1426H694.309V138.723H769.934V163H665.305ZM893.061 165.148C879.024 165.148 866.456 161.89 855.355 155.373C844.327 148.856 835.626 139.475 829.252 127.229C822.95 114.982 819.799 100.266 819.799 83.0781C819.799 65.819 822.986 51.0664 829.359 38.8203C835.805 26.5026 844.542 17.0853 855.57 10.5684C866.671 4.05143 879.167 0.792969 893.061 0.792969C901.869 0.792969 910.105 2.04622 917.768 4.55273C925.502 7.05924 932.377 10.7474 938.393 15.6172C944.408 20.4154 949.314 26.3236 953.109 33.3418C956.977 40.2884 959.519 48.2018 960.736 57.082H931.518C930.73 52.2122 929.19 47.9154 926.898 44.1914C924.678 40.4674 921.885 37.3164 918.52 34.7383C915.225 32.0885 911.465 30.1191 907.24 28.8301C903.015 27.4694 898.467 26.7891 893.598 26.7891C884.861 26.7891 877.126 28.9733 870.395 33.3418C863.663 37.6387 858.399 44.0124 854.604 52.4629C850.808 60.8418 848.91 71.0469 848.91 83.0781C848.91 95.2526 850.808 105.529 854.604 113.908C858.471 122.215 863.734 128.518 870.395 132.814C877.126 137.04 884.825 139.152 893.49 139.152C898.288 139.152 902.764 138.544 906.918 137.326C911.072 136.037 914.831 134.139 918.197 131.633C921.635 129.055 924.464 125.975 926.684 122.395C928.975 118.742 930.587 114.553 931.518 109.826H960.736C959.662 117.489 957.299 124.686 953.646 131.418C950.066 138.078 945.339 143.951 939.467 149.035C933.666 154.048 926.863 157.987 919.057 160.852C911.251 163.716 902.585 165.148 893.061 165.148ZM1005.34 27.2188V2.94141H1132.96V27.2188H1083.54V163H1054.86V27.2188H1005.34ZM1238.68 165.471C1226.22 165.471 1215.4 163.537 1206.24 159.67C1197.07 155.803 1189.91 150.181 1184.75 142.805C1179.6 135.357 1176.8 126.333 1176.38 115.734H1204.95C1205.38 121.32 1207.1 125.975 1210.11 129.699C1213.11 133.352 1217.05 136.109 1221.92 137.971C1226.86 139.833 1232.34 140.764 1238.36 140.764C1244.66 140.764 1250.21 139.797 1255.01 137.863C1259.81 135.93 1263.57 133.244 1266.29 129.807C1269.01 126.369 1270.37 122.359 1270.37 117.775C1270.37 113.622 1269.15 110.22 1266.72 107.57C1264.28 104.849 1260.92 102.557 1256.62 100.695C1252.32 98.8333 1247.27 97.1862 1241.47 95.7539L1223.32 91.0273C1210.14 87.6615 1199.76 82.541 1192.17 75.666C1184.57 68.7194 1180.78 59.4811 1180.78 47.9512C1180.78 38.498 1183.32 30.2624 1188.41 23.2441C1193.49 16.1543 1200.44 10.64 1209.25 6.70117C1218.13 2.76237 1228.15 0.792969 1239.32 0.792969C1250.71 0.792969 1260.7 2.76237 1269.29 6.70117C1277.89 10.64 1284.62 16.0827 1289.49 23.0293C1294.36 29.9759 1296.9 37.9609 1297.12 46.9844H1269.08C1268.36 40.1094 1265.32 34.8099 1259.95 31.0859C1254.65 27.2904 1247.67 25.3926 1239 25.3926C1232.99 25.3926 1227.79 26.2878 1223.43 28.0781C1219.13 29.8685 1215.83 32.3392 1213.54 35.4902C1211.25 38.6413 1210.11 42.222 1210.11 46.2324C1210.11 50.6725 1211.43 54.3249 1214.08 57.1895C1216.8 59.9824 1220.24 62.2383 1224.39 63.957C1228.62 65.6758 1232.91 67.1081 1237.28 68.2539L1252.21 72.0137C1258.23 73.446 1264.03 75.3796 1269.62 77.8145C1275.2 80.1777 1280.22 83.1855 1284.66 86.8379C1289.17 90.4186 1292.71 94.7871 1295.29 99.9434C1297.94 105.1 1299.27 111.151 1299.27 118.098C1299.27 127.408 1296.87 135.643 1292.07 142.805C1287.27 149.895 1280.36 155.445 1271.34 159.455C1262.31 163.465 1251.43 165.471 1238.68 165.471Z" fill="#222222"/>
</svg>
